ply
format ascii 1.0  
element vertex 8
property float x           { vertex contains float "x" coordinate }
property float y           { y coordinate is also a vertex property }
property float z           { z coordinate, too }
element face 12
property list uchar int vertex_index
end_header                 { delimits the end of the header }
0.0 8.250426039631058e-09 0.9310103682082155
-0.057415809125056755 0.05893162213053874 0.9223231388697045
0.057415809125056755 0.05893162213053874 0.9223231388697045
0.0 0.1269296381460534 0.9122994127098843
0.0 -0.11786321950979936 0.9223231388697045
-0.061832409826984194 -0.06346480669738763 0.9122994127098843
0.061832409826984194 -0.06346480669738763 0.9122994127098843
0.0 8.250426053370778e-09 0.9006050655234272
3 1 0 2
3 3 1 2
3 4 5 6
3 5 7 6
3 0 1 4
3 4 1 5
3 2 6 3
3 3 6 7
3 0 6 2
3 4 6 0
3 1 3 7
3 5 1 7
