ply
format ascii 1.0  
element vertex 8
property float x           { vertex contains float "x" coordinate }
property float y           { y coordinate is also a vertex property }
property float z           { z coordinate, too }
element face 12
property list uchar int vertex_index
end_header                 { delimits the end of the header }
4.6959759607492915 3.8874463481669204 4.685577695022453
3.8874463481669204 4.6959759607492915 4.685577695022453
4.95855365183308 4.150024039250709 4.160422304977547
4.150024039250709 4.95855365183308 4.160422304977547
-1.0804807850141653 -17.251073036661595 -1.2884460995509297
-17.251073036661595 -1.0804807850141653 -1.2884460995509297
4.1710730366615945 -11.999519214985831 -11.791553900449067
-11.999519214985831 4.1710730366615945 -11.791553900449067
3 1 0 2
3 3 1 2
3 4 5 6
3 5 7 6
3 0 1 4
3 4 1 5
3 2 6 3
3 3 6 7
3 0 6 2
3 4 6 0
3 1 3 7
3 5 1 7
